
<svg width="1383" height="708" viewBox="0 0 1383 708" fill="none" xmlns="http://www.w3.org/2000/svg">
    <g opacity="0.15" filter="url(#filter0_d_36_65)">
        <path d="M1321.93 667.223C1281.91 695.706 1230.05 697.136 1179.92 693.637C1172.92 693.149 1165.97 692.576 1159.08 691.958C1159.04 691.948 1158.99 691.952 1158.95 691.941C1158.61 691.91 1158.28 691.879 1157.97 691.86C1156.54 691.729 1155.12 691.598 1153.71 691.465L1154.05 692.092L1155.09 694.038C1154.72 693.387 1154.34 692.749 1153.97 692.098C1153.86 691.902 1153.73 691.708 1153.62 691.512C1140.64 669.185 1127.76 646.038 1124.47 620.543C1121.08 594.081 1130.62 564.117 1154.19 551.11C1157.28 549.409 1160.56 548.055 1163.95 547.071C1165.36 546.648 1166.79 546.305 1168.24 546.001C1177.08 544.061 1186.28 544.483 1194.9 547.223C1203.52 549.963 1211.25 554.922 1217.29 561.591C1223.33 568.259 1227.46 576.396 1229.26 585.165C1231.06 593.934 1230.46 603.019 1227.53 611.484C1247.52 591.237 1243.79 558.39 1236.89 530.939C1229.99 503.488 1221.62 472.942 1235.67 448.286C1243.48 434.562 1257.22 426.047 1272.63 422.617C1273.1 422.516 1273.57 422.415 1274.05 422.328C1292.41 418.653 1311.5 421.958 1327.51 431.583C1356.98 449.931 1372.11 484.719 1377.03 518.797C1384.94 573.635 1367.42 634.836 1321.93 667.223Z" fill="url(#paint0_linear_36_65)"/>
        <path d="M1309.01 579.316C1307.85 591.412 1304.9 603.276 1300.28 614.533C1296.01 624.495 1290.26 633.771 1283.22 642.054C1268.84 659.148 1249.82 672 1229.17 680.563C1213.37 686.954 1196.83 691.346 1179.92 693.637C1172.92 693.149 1165.97 692.576 1159.08 691.959C1159.04 691.948 1158.99 691.952 1158.95 691.941C1158.61 691.91 1158.28 691.879 1157.97 691.86C1156.55 691.729 1155.12 691.598 1153.72 691.466L1154.05 692.093L1155.09 694.038C1154.72 693.387 1154.34 692.749 1153.97 692.098C1153.86 691.903 1153.73 691.708 1153.62 691.512C1166.3 679.035 1175.76 663.737 1181.22 646.901C1186.68 630.066 1187.98 612.183 1185 594.75C1181.89 577.441 1174.67 561.104 1163.95 547.071C1165.36 546.648 1166.79 546.305 1168.24 546.001C1172.31 551.504 1175.89 557.352 1178.92 563.477C1189.79 585.319 1193.26 610.042 1188.81 633.985C1184.68 655.651 1174.37 675.701 1159.1 691.781C1160.44 691.688 1161.79 691.581 1163.11 691.462C1188.13 689.367 1213.1 684.052 1235.8 673.166C1255.2 664.086 1272.04 650.432 1284.84 633.407C1298.59 614.678 1304.64 592.149 1305.68 569.252C1306.79 544.738 1303.57 519.794 1297.91 495.955C1292.12 471.516 1283.34 447.867 1271.74 425.537C1271.48 425.03 1271.43 424.445 1271.59 423.901C1271.76 423.358 1272.13 422.898 1272.63 422.617C1273.05 422.34 1273.56 422.236 1274.05 422.328C1274.29 422.391 1274.51 422.507 1274.7 422.668C1274.89 422.828 1275.04 423.029 1275.14 423.254C1276.57 426.013 1277.98 428.773 1279.33 431.565C1290.58 454.814 1298.86 479.354 1303.98 504.621C1308.95 528.996 1311.61 554.494 1309.01 579.316Z" fill="white"/>
        <path d="M786.486 679.808C806.928 694.358 833.419 695.089 859.026 693.301C862.601 693.052 866.152 692.759 869.669 692.444C869.69 692.438 869.718 692.44 869.74 692.435C869.909 692.419 870.078 692.403 870.24 692.394C870.966 692.327 871.692 692.259 872.412 692.192L872.242 692.512L871.708 693.506C871.9 693.173 872.092 692.848 872.283 692.515C872.34 692.415 872.403 692.316 872.459 692.216C879.092 680.811 885.672 668.987 887.35 655.964C889.085 642.446 884.209 627.14 872.168 620.496C870.589 619.627 868.916 618.935 867.182 618.433C866.462 618.216 865.732 618.041 864.994 617.886C860.477 616.895 855.776 617.11 851.372 618.51C846.968 619.91 843.021 622.443 839.937 625.849C836.852 629.256 834.742 633.412 833.822 637.892C832.903 642.371 833.208 647.012 834.705 651.336C824.496 640.993 826.401 624.215 829.922 610.192C833.451 596.169 837.722 580.566 830.546 567.971C828.514 564.593 825.781 561.678 822.528 559.418C819.274 557.158 815.573 555.604 811.668 554.859C811.426 554.807 811.185 554.756 810.943 554.711C801.563 552.834 791.811 554.522 783.635 559.439C768.581 568.811 760.849 586.582 758.34 603.99C754.297 632.002 763.244 663.265 786.486 679.808Z" fill="url(#paint1_linear_36_65)"/>
        <path d="M793.085 634.904C793.679 641.082 795.181 647.143 797.545 652.893C799.723 657.982 802.659 662.721 806.256 666.952C813.733 675.598 823.203 682.345 833.869 686.623C841.936 689.887 850.389 692.131 859.026 693.301C862.601 693.052 866.152 692.759 869.669 692.444C869.69 692.438 869.718 692.44 869.74 692.435C869.909 692.419 870.078 692.403 870.24 692.394C870.966 692.327 871.692 692.26 872.411 692.192L872.242 692.512L871.708 693.506C871.9 693.174 872.091 692.848 872.283 692.515C872.339 692.415 872.403 692.316 872.459 692.216C865.984 685.842 861.149 678.028 858.36 669.428C855.572 660.828 854.91 651.693 856.43 642.788C858.022 633.946 861.706 625.601 867.182 618.433C866.461 618.216 865.731 618.041 864.993 617.886C862.912 620.697 861.087 623.684 859.538 626.813C853.982 637.97 852.209 650.599 854.483 662.83C856.596 673.897 861.862 684.139 869.661 692.353C868.979 692.306 868.289 692.251 867.614 692.19C854.762 691.35 842.175 688.182 830.482 682.844C820.573 678.206 811.969 671.231 805.43 662.535C798.408 652.967 795.314 641.459 794.783 629.763C794.374 617.162 795.711 604.565 798.756 592.321C801.71 579.837 806.198 567.757 812.122 556.35C812.254 556.092 812.281 555.792 812.197 555.515C812.112 555.237 811.923 555.002 811.668 554.859C811.455 554.717 811.195 554.664 810.943 554.711C810.82 554.744 810.706 554.803 810.609 554.885C810.512 554.967 810.435 555.069 810.384 555.184C809.653 556.594 808.936 558.004 808.246 559.429C802.501 571.306 798.27 583.841 795.653 596.748C792.868 609.268 792.002 622.13 793.085 634.904Z" fill="white"/>
        <g filter="url(#filter1_d_36_65)">
            <rect x="4" y="23.1539" width="262.574" height="379.268" rx="6" fill="#E65C00"/>
            <rect x="4.5" y="23.6539" width="261.574" height="378.268" rx="5.5" stroke="black"/>
        </g>
        <g filter="url(#filter2_d_36_65)">
            <rect x="459.857" y="23.1539" width="262.574" height="379.268" rx="6" fill="#FDFC47"/>
            <rect x="460.357" y="23.6539" width="261.574" height="378.268" rx="5.5" stroke="black"/>
        </g>
        <g filter="url(#filter3_d_36_65)">
            <rect width="262.501" height="379.374" rx="6" transform="matrix(0.985653 -0.168787 0.171957 0.985104 898.578 44.3068)" fill="url(#paint2_linear_36_65)"/>
            <rect x="0.578805" y="0.408159" width="261.501" height="378.374" rx="5.5" transform="matrix(0.985653 -0.168787 0.171957 0.985104 898.517 44.4106)" stroke="black"/>
        </g>
        <rect x="-1.14994" y="-0.82689" width="131.774" height="39.8707" rx="6" transform="matrix(0.987154 -0.159772 0.162782 0.986662 981.477 120.485)" stroke="#333333" stroke-width="2"/>
        <rect x="-1.14994" y="-0.82689" width="131.774" height="39.8707" rx="6" transform="matrix(0.987154 -0.159772 0.162782 0.986662 992.417 184.564)" stroke="#333333" stroke-width="2"/>
        <rect x="-1.14994" y="-0.82689" width="131.774" height="39.8707" rx="6" transform="matrix(0.987154 -0.159772 0.162782 0.986662 1003.36 249.582)" stroke="#333333" stroke-width="2"/>
        <rect x="-1.14994" y="-0.82689" width="131.774" height="39.8707" rx="6" transform="matrix(0.987154 -0.159772 0.162782 0.986662 1014.3 314.599)" stroke="#333333" stroke-width="2"/>
        <path d="M1164.51 44.5642L908.858 86.4844C908.671 86.5159 908.478 86.5104 908.293 86.4683C908.107 86.4261 907.931 86.3482 907.776 86.239C907.621 86.1297 907.489 85.9913 907.388 85.8316C907.287 85.6719 907.219 85.4941 907.188 85.3084C907.157 85.1226 907.163 84.9326 907.206 84.7493C907.25 84.566 907.329 84.3929 907.44 84.24C907.551 84.087 907.692 83.9573 907.854 83.8582C908.016 83.759 908.196 83.6925 908.384 83.6623L1164.04 41.742C1164.22 41.7106 1164.42 41.7161 1164.6 41.7582C1164.79 41.8003 1164.96 41.8782 1165.12 41.9875C1165.27 42.0968 1165.4 42.2352 1165.51 42.3949C1165.61 42.5546 1165.67 42.7324 1165.71 42.9181C1165.74 43.1038 1165.73 43.2938 1165.69 43.4771C1165.64 43.6605 1165.56 43.8336 1165.45 43.9865C1165.34 44.1394 1165.2 44.2692 1165.04 44.3683C1164.88 44.4674 1164.7 44.534 1164.51 44.5642V44.5642Z" fill="#3F3D56"/>
        <path d="M936.631 69.6234C942.228 69.6234 946.765 65.1406 946.765 59.6108C946.765 54.0809 942.228 49.5981 936.631 49.5981C931.034 49.5981 926.496 54.0809 926.496 59.6108C926.496 65.1406 931.034 69.6234 936.631 69.6234Z" fill="white"/>
        <path d="M1138.49 20.7113L1109.93 25.3951C1109.55 25.4558 1109.16 25.3659 1108.85 25.1452C1108.54 24.9244 1108.33 24.5908 1108.26 24.2174C1108.2 23.844 1108.29 23.4613 1108.51 23.153C1108.74 22.8448 1109.07 22.6362 1109.45 22.573L1138.02 17.8891C1138.39 17.8283 1138.78 17.9181 1139.09 18.1389C1139.4 18.3596 1139.61 18.6933 1139.68 19.0667C1139.74 19.4402 1139.65 19.823 1139.43 20.1313C1139.2 20.4395 1138.87 20.6481 1138.49 20.7113V20.7113Z" fill="#3F3D56"/>
        <path d="M1139.91 29.1777L1111.35 33.8615C1110.97 33.9222 1110.58 33.8323 1110.27 33.6116C1109.96 33.3909 1109.75 33.0572 1109.69 32.6838C1109.62 32.3104 1109.71 31.9277 1109.94 31.6195C1110.16 31.3112 1110.5 31.1026 1110.87 31.0394L1139.44 26.3556C1139.82 26.2949 1140.2 26.3847 1140.51 26.6055C1140.83 26.8262 1141.04 27.1598 1141.1 27.5332C1141.16 27.9066 1141.07 28.2894 1140.85 28.5976C1140.63 28.9058 1140.29 29.1144 1139.91 29.1777V29.1777Z" fill="#3F3D56"/>
        <path d="M1141.33 37.6441L1112.77 42.328C1112.58 42.3594 1112.39 42.3538 1112.2 42.3117C1112.02 42.2695 1111.84 42.1916 1111.69 42.0823C1111.53 41.9731 1111.4 41.8346 1111.3 41.675C1111.2 41.5153 1111.13 41.3375 1111.1 41.1518C1111.07 40.9661 1111.08 40.7762 1111.12 40.5929C1111.16 40.4096 1111.24 40.2365 1111.35 40.0836C1111.46 39.9307 1111.6 39.8009 1111.77 39.7018C1111.93 39.6026 1112.11 39.536 1112.3 39.5058L1140.86 34.822C1141.05 34.7905 1141.24 34.796 1141.43 34.8381C1141.61 34.8803 1141.79 34.9582 1141.94 35.0674C1142.1 35.1767 1142.23 35.3151 1142.33 35.4748C1142.43 35.6345 1142.5 35.8123 1142.53 35.998C1142.56 36.1838 1142.56 36.3737 1142.51 36.5571C1142.47 36.7404 1142.39 36.9135 1142.28 37.0664C1142.17 37.2194 1142.03 37.3491 1141.86 37.4482C1141.7 37.5474 1141.52 37.6139 1141.33 37.6441Z" fill="#3F3D56"/>
        <path d="M1189.79 383.305C1190.46 381.158 1190.65 378.893 1190.34 376.667C1190.02 374.442 1189.22 372.312 1187.99 370.426C1186.75 368.54 1185.11 366.944 1183.19 365.752C1181.26 364.559 1179.09 363.799 1176.83 363.524L1102.52 277.725L1085.18 295.706L1159.21 377.972C1158.99 381.749 1160.18 385.472 1162.56 388.437C1164.94 391.402 1168.33 393.403 1172.1 394.06C1175.87 394.717 1179.75 393.985 1183.01 392.003C1186.27 390.021 1188.69 386.926 1189.79 383.305V383.305Z" fill="#DAAF92"/>
        <path d="M1124.04 295.8L1097.48 314.982C1096.72 315.528 1095.86 315.906 1094.94 316.092C1094.02 316.277 1093.07 316.265 1092.16 316.056C1091.25 315.847 1090.39 315.446 1089.65 314.881C1088.91 314.316 1088.3 313.6 1087.87 312.781L1072.6 284.094C1069.8 280.257 1068.65 275.478 1069.4 270.805C1070.16 266.132 1072.76 261.946 1076.64 259.165C1080.51 256.383 1085.35 255.234 1090.08 255.968C1094.81 256.703 1099.05 259.262 1101.88 263.083L1124.84 286.085C1125.5 286.744 1126 287.535 1126.32 288.404C1126.64 289.273 1126.77 290.201 1126.69 291.123C1126.62 292.044 1126.34 292.94 1125.88 293.747C1125.43 294.554 1124.8 295.254 1124.04 295.8V295.8Z" fill="white"/>
        <path d="M1072.78 238.478C1092.42 238.478 1108.34 222.749 1108.34 203.346C1108.34 183.943 1092.42 168.214 1072.78 168.214C1053.14 168.214 1037.22 183.943 1037.22 203.346C1037.22 222.749 1053.14 238.478 1072.78 238.478Z" fill="#DAAF92"/>
        <path d="M1088.23 361.844C1087.86 361.844 1087.49 361.814 1087.13 361.753L1024.74 351.377C1023.23 351.13 1021.87 350.369 1020.87 349.228C1019.88 348.086 1019.32 346.636 1019.3 345.131C1019.11 331.028 1020.18 295.428 1034.16 269.498C1038.54 261.393 1045.74 255.133 1054.44 251.883C1063.13 248.633 1072.73 248.614 1081.43 251.83C1090.14 255.045 1097.37 261.276 1101.78 269.363C1106.18 277.451 1107.47 286.844 1105.39 295.797C1100.71 315.714 1097.13 335.87 1094.67 356.173C1094.48 357.733 1093.73 359.171 1092.54 360.215C1091.35 361.26 1089.82 361.839 1088.23 361.844L1088.23 361.844Z" fill="#2F2E41"/>
        <path d="M957.417 246.167C957.595 246.939 957.711 247.724 957.764 248.513L1019.96 283.961L1035.07 275.363L1051.19 296.207L1025.92 313.998C1023.88 315.435 1021.42 316.179 1018.92 316.119C1016.41 316.059 1014 315.197 1012.03 313.663L947.897 263.677C945.003 264.736 941.851 264.898 938.861 264.144C935.871 263.39 933.184 261.753 931.158 259.454C929.132 257.154 927.863 254.299 927.519 251.269C927.175 248.238 927.773 245.177 929.234 242.491C930.694 239.805 932.948 237.622 935.695 236.232C938.441 234.842 941.551 234.311 944.611 234.71C947.671 235.11 950.535 236.419 952.822 238.466C955.11 240.513 956.713 243.199 957.417 246.167V246.167Z" fill="#DAAF92"/>
        <path d="M1020.81 280.418C1021 279.512 1021.38 278.656 1021.93 277.909C1022.49 277.162 1023.19 276.542 1024.01 276.091L1052.55 260.324C1056.34 257.433 1061.14 256.145 1065.89 256.744C1070.64 257.342 1074.96 259.777 1077.9 263.515C1080.83 267.253 1082.15 271.989 1081.56 276.685C1080.97 281.381 1078.52 285.653 1074.74 288.566L1051.99 311.911C1051.34 312.578 1050.55 313.098 1049.68 313.436C1048.81 313.775 1047.87 313.924 1046.94 313.873C1046 313.823 1045.09 313.574 1044.26 313.143C1043.43 312.713 1042.71 312.111 1042.14 311.378L1022.04 285.64C1021.46 284.908 1021.06 284.062 1020.85 283.161C1020.63 282.26 1020.62 281.324 1020.81 280.418Z" fill="white"/>
        <path d="M990.7 676.928H972.95L968.772 609.507L990.703 609.289L990.7 676.928Z" fill="#DAAF92"/>
        <path d="M995.226 693.927L937.995 693.925V693.21C937.995 690.32 938.571 687.458 939.691 684.788C940.81 682.118 942.451 679.692 944.519 677.648C946.588 675.604 949.044 673.983 951.746 672.877C954.449 671.771 957.346 671.202 960.271 671.202H960.272L995.227 671.203L995.226 693.927Z" fill="#2F2E41"/>
        <path d="M1160.09 676.928H1142.34L1133.89 609.289H1160.09L1160.09 676.928Z" fill="#DAAF92"/>
        <path d="M1164.61 693.927L1107.38 693.925V693.21C1107.38 690.32 1107.96 687.458 1109.08 684.788C1110.2 682.118 1111.84 679.692 1113.91 677.648C1115.98 675.604 1118.43 673.983 1121.13 672.877C1123.84 671.771 1126.73 671.202 1129.66 671.202H1129.66L1164.61 671.203L1164.61 693.927Z" fill="#2F2E41"/>
        <path d="M1139.91 641.853C1138.56 641.85 1137.24 641.434 1136.14 640.662C1135.04 639.89 1134.2 638.8 1133.75 637.542L1077.19 477.873C1076.97 477.261 1076.59 476.719 1076.09 476.305C1075.58 475.891 1074.97 475.619 1074.32 475.52C1073.68 475.421 1073.01 475.498 1072.41 475.743C1071.8 475.988 1071.27 476.391 1070.88 476.909L1015.7 549.592C1015.27 550.16 1014.97 550.81 1014.81 551.501L997.229 628.999C996.914 630.376 996.151 631.613 995.056 632.52C993.961 633.428 992.595 633.955 991.168 634.021L970.11 634.966C969.202 635.012 968.295 634.867 967.447 634.541C966.6 634.215 965.832 633.715 965.194 633.075C964.554 632.438 964.056 631.677 963.731 630.839C963.406 630 963.262 629.105 963.308 628.208L966.98 557.473C968.138 534.59 974.106 512.196 984.503 491.716C1007.62 446.18 1020.99 396.428 1023.79 345.562L1023.83 344.77L1088.62 354.955L1098.35 368.26C1102.69 374.263 1107.39 380.002 1112.43 385.447C1124.81 398.716 1128.53 416.461 1129.47 429.011C1130.68 444.434 1132.89 459.765 1136.09 474.91L1168.22 630.91C1168.46 631.796 1168.51 632.722 1168.35 633.627C1168.2 634.532 1167.86 635.394 1167.34 636.156C1166.83 636.919 1166.15 637.563 1165.36 638.047C1164.57 638.531 1163.69 638.843 1162.77 638.961L1140.74 641.8C1140.47 641.835 1140.19 641.853 1139.91 641.853Z" fill="#2F2E41"/>
        <path d="M1112.1 178.962C1109.27 170.502 1107.19 161.819 1105.87 153.007C1105.45 147.877 1106.78 142.357 1110.56 138.817C1117.64 132.193 1129.66 135.348 1137.06 141.617C1147.76 150.678 1153.09 164.602 1155.11 178.378C1157.13 192.155 1156.24 206.164 1156.72 220.076C1157.21 233.987 1159.22 248.291 1166.4 260.269C1173.58 272.246 1186.9 281.44 1200.95 280.42C1206.62 280.118 1212.01 277.863 1216.17 274.047C1218.22 272.126 1219.77 269.748 1220.69 267.113C1221.61 264.479 1221.88 261.664 1221.47 258.905C1228.66 271.61 1225.01 288.83 1214.3 298.818C1203.59 308.806 1187.11 311.629 1173.03 307.365C1158.95 303.101 1147.36 292.408 1140.44 279.563C1133.51 266.719 1130.98 251.881 1131.34 237.333C1131.63 226.162 1133.55 214.899 1131.64 203.884C1129.73 192.87 1122.75 181.686 1111.75 179.093L1112.1 178.962Z" fill="#2F2E41"/>
        <path d="M1062.69 193.443C1060.82 199.634 1053.64 203.451 1047.19 202.404C1040.73 201.357 1035.43 196.106 1033.46 189.941C1031.69 183.644 1032.42 176.916 1035.49 171.13C1037.19 167.662 1039.56 164.559 1042.47 161.997C1045.38 159.435 1048.78 157.466 1052.46 156.202C1056.16 154.989 1060.1 154.674 1063.96 155.282C1067.81 155.89 1071.46 157.404 1074.59 159.696C1074.93 158.305 1075.63 157.028 1076.63 155.994C1077.63 154.961 1078.89 154.21 1080.28 153.818C1083.08 153.072 1086.04 153.115 1088.82 153.943C1096.82 156.197 1103.76 161.183 1108.39 168.014C1112.97 174.824 1116 182.534 1117.27 190.611C1119.45 202.724 1118.65 215.961 1111.76 226.213C1104.87 236.465 1090.79 242.519 1079.36 237.631C1078.65 234.031 1080.33 230.407 1082.29 227.288C1084.24 224.169 1086.55 221.131 1087.31 217.539C1088.06 213.947 1086.62 209.553 1083.1 208.378C1080.1 207.376 1076.9 209 1073.74 209.196C1071.95 209.307 1070.15 208.95 1068.54 208.161C1066.93 207.371 1065.56 206.177 1064.56 204.698C1063.56 203.219 1062.98 201.507 1062.86 199.734C1062.75 197.961 1063.11 196.189 1063.9 194.595L1062.69 193.443Z" fill="#2F2E41"/>
        <g filter="url(#filter4_d_36_65)">
            <rect x="769.839" y="691.388" width="557.969" height="3.61208" fill="white"/>
        </g>
        <rect x="70.1435" y="106.732" width="130.287" height="132.647" rx="2.5" fill="white" stroke="black"/>
        <rect x="555.175" y="85.0592" width="79.2308" height="78.4657" rx="2.5" fill="white" stroke="black"/>
        <path d="M303.042 214.594H392.39M374.156 174.861L423.136 212.978C424.179 213.791 424.162 215.374 423.1 216.162L374.156 252.521" stroke="black" stroke-linecap="round"/>
        <path d="M755.252 214.594H844.6M826.366 174.861L876.384 213.786C876.906 214.192 876.897 214.984 876.366 215.378L826.366 252.521" stroke="black" stroke-width="2" stroke-linecap="round" stroke-linejoin="round"/>
        <rect x="70.1435" y="283.723" width="130.287" height="35.1208" rx="4.5" stroke="black"/>
        <rect x="526" y="197.034" width="130.287" height="35.1208" rx="4.5" stroke="black"/>
        <rect x="526" y="251.215" width="130.287" height="35.1208" rx="4.5" stroke="black"/>
        <rect x="526" y="305.396" width="130.287" height="35.1208" rx="4.5" stroke="black"/>
    </g>
    <defs>
        <filter id="filter0_d_36_65" x="0" y="0.925613" width="1382.86" height="702.074" filterUnits="userSpaceOnUse" color-interpolation-filters="sRGB">
            <feFlood flood-opacity="0" result="BackgroundImageFix"/>
            <feColorMatrix in="SourceAlpha" type="matrix" values="0 0 0 0 0 0 0 0 0 0 0 0 0 0 0 0 0 0 127 0" result="hardAlpha"/>
            <feOffset dy="4"/>
            <feGaussianBlur stdDeviation="2"/>
            <feComposite in2="hardAlpha" operator="out"/>
            <feColorMatrix type="matrix" values="0 0 0 0 0 0 0 0 0 0 0 0 0 0 0 0 0 0 0.25 0"/>
            <feBlend mode="normal" in2="BackgroundImageFix" result="effect1_dropShadow_36_65"/>
            <feBlend mode="normal" in="SourceGraphic" in2="effect1_dropShadow_36_65" result="shape"/>
        </filter>
        <filter id="filter1_d_36_65" x="0" y="23.1539" width="270.574" height="387.268" filterUnits="userSpaceOnUse" color-interpolation-filters="sRGB">
            <feFlood flood-opacity="0" result="BackgroundImageFix"/>
            <feColorMatrix in="SourceAlpha" type="matrix" values="0 0 0 0 0 0 0 0 0 0 0 0 0 0 0 0 0 0 127 0" result="hardAlpha"/>
            <feOffset dy="4"/>
            <feGaussianBlur stdDeviation="2"/>
            <feComposite in2="hardAlpha" operator="out"/>
            <feColorMatrix type="matrix" values="0 0 0 0 0 0 0 0 0 0 0 0 0 0 0 0 0 0 0.25 0"/>
            <feBlend mode="normal" in2="BackgroundImageFix" result="effect1_dropShadow_36_65"/>
            <feBlend mode="normal" in="SourceGraphic" in2="effect1_dropShadow_36_65" result="shape"/>
        </filter>
        <filter id="filter2_d_36_65" x="455.857" y="23.1539" width="270.574" height="387.268" filterUnits="userSpaceOnUse" color-interpolation-filters="sRGB">
            <feFlood flood-opacity="0" result="BackgroundImageFix"/>
            <feColorMatrix in="SourceAlpha" type="matrix" values="0 0 0 0 0 0 0 0 0 0 0 0 0 0 0 0 0 0 127 0" result="hardAlpha"/>
            <feOffset dy="4"/>
            <feGaussianBlur stdDeviation="2"/>
            <feComposite in2="hardAlpha" operator="out"/>
            <feColorMatrix type="matrix" values="0 0 0 0 0 0 0 0 0 0 0 0 0 0 0 0 0 0 0.25 0"/>
            <feBlend mode="normal" in2="BackgroundImageFix" result="effect1_dropShadow_36_65"/>
            <feBlend mode="normal" in="SourceGraphic" in2="effect1_dropShadow_36_65" result="shape"/>
        </filter>
        <filter id="filter3_d_36_65" x="895.52" y="0.925613" width="330.088" height="424.179" filterUnits="userSpaceOnUse" color-interpolation-filters="sRGB">
            <feFlood flood-opacity="0" result="BackgroundImageFix"/>
            <feColorMatrix in="SourceAlpha" type="matrix" values="0 0 0 0 0 0 0 0 0 0 0 0 0 0 0 0 0 0 127 0" result="hardAlpha"/>
            <feOffset dy="4"/>
            <feGaussianBlur stdDeviation="2"/>
            <feComposite in2="hardAlpha" operator="out"/>
            <feColorMatrix type="matrix" values="0 0 0 0 0 0 0 0 0 0 0 0 0 0 0 0 0 0 0.25 0"/>
            <feBlend mode="normal" in2="BackgroundImageFix" result="effect1_dropShadow_36_65"/>
            <feBlend mode="normal" in="SourceGraphic" in2="effect1_dropShadow_36_65" result="shape"/>
        </filter>
        <filter id="filter4_d_36_65" x="760.839" y="686.388" width="575.969" height="21.6121" filterUnits="userSpaceOnUse" color-interpolation-filters="sRGB">
            <feFlood flood-opacity="0" result="BackgroundImageFix"/>
            <feColorMatrix in="SourceAlpha" type="matrix" values="0 0 0 0 0 0 0 0 0 0 0 0 0 0 0 0 0 0 127 0" result="hardAlpha"/>
            <feMorphology radius="5" operator="dilate" in="SourceAlpha" result="effect1_dropShadow_36_65"/>
            <feOffset dy="4"/>
            <feGaussianBlur stdDeviation="2"/>
            <feComposite in2="hardAlpha" operator="out"/>
            <feColorMatrix type="matrix" values="0 0 0 0 0 0 0 0 0 0 0 0 0 0 0 0 0 0 0.25 0"/>
            <feBlend mode="normal" in2="BackgroundImageFix" result="effect1_dropShadow_36_65"/>
            <feBlend mode="normal" in="SourceGraphic" in2="effect1_dropShadow_36_65" result="shape"/>
        </filter>
        <linearGradient id="paint0_linear_36_65" x1="1123.81" y1="557.932" x2="1378.86" y2="557.932" gradientUnits="userSpaceOnUse">
            <stop stop-color="#E65C00"/>
            <stop offset="1" stop-color="#F9D423"/>
        </linearGradient>
        <linearGradient id="paint1_linear_36_65" x1="757.401" y1="623.981" x2="887.69" y2="623.981" gradientUnits="userSpaceOnUse">
            <stop stop-color="#E65C00"/>
            <stop offset="1" stop-color="#F9D423"/>
        </linearGradient>
        <linearGradient id="paint2_linear_36_65" x1="0" y1="189.687" x2="262.501" y2="189.687" gradientUnits="userSpaceOnUse">
            <stop stop-color="#FDFC47"/>
            <stop offset="1" stop-color="#24FE41"/>
        </linearGradient>
    </defs>
</svg>
