<svg width="500" height="53" viewBox="0 0 500 53" fill="none" xmlns="http://www.w3.org/2000/svg">
    <path d="M500 -7.24792e-05C391.5 8.5 338.5 14 295.5 24.5C252.5 35 239.147 42.9536 208 41.5C190.331 40.6754 114.5 31 87.5 31C60.5 31 53.5001 40 9.15527e-05 51.624L8.70396e-05 -2.87679e-05L500 -7.24792e-05Z" fill="#CCCCCC" fill-opacity="0.49"/>
    <path d="M500 1.52588e-05C224 4.5 261.5 30.5 209 28C180.866 26.6603 132.263 15.1044 87 21C41.5 32.5 20 39 6.10352e-05 52.5L5.64455e-05 5.89702e-05L500 1.52588e-05Z" fill="white"/>
</svg>